<?xml version="1.0" encoding="UTF-8"?>
<svg width="133px" height="19px" viewBox="0 0 133 19" version="1.1" xmlns="http://www.w3.org/2000/svg" xmlns:xlink="http://www.w3.org/1999/xlink">
    <title>Capitec</title>
    <desc>Capitec Logo</desc>
    <g stroke="none" stroke-width="1" fill="none" fill-rule="evenodd">
        <g transform="translate(-40.000000, -22.000000)">
            <g transform="translate(40.257454, 22.012662)">
                <path d="M126.064132,4.12348214 C128.022974,4.12348214 129.942853,4.47968629 131.43658,5.77449799 L131.562234,5.88450229 C131.624087,5.94117114 131.699578,6.01641203 131.763866,6.08165263 C131.82231,6.1397501 131.874422,6.19372048 131.920203,6.24356376 C131.74341,6.42738035 131.571488,6.52881264 131.409794,6.57643352 C131.230566,6.63024512 131.063027,6.61453021 130.921788,6.57262383 C130.729897,6.51484383 130.571125,6.41849094 130.44547,6.28356515 C129.4003,5.2944795 128.098464,4.93732293 126.662695,4.93732293 C123.61144,4.93732293 121.64578,6.63881717 121.64578,9.51130847 C121.64578,12.0475964 123.181878,13.5395583 125.76753,13.7843296 C126.015429,13.8224263 126.281349,13.843856 126.574055,13.843856 C127.025046,13.843856 127.474576,13.7924251 127.912418,13.7033741 C128.494908,13.5962271 129.046228,13.4128872 129.555663,13.1414482 C130.316407,12.7657195 130.968056,12.2566521 131.417586,11.654248 L132.397494,12.0485489 C130.892565,14.1552965 128.345876,14.7915117 125.945297,14.7915117 C121.821599,14.7915117 118.411888,12.7052407 118.411888,9.45082978 C118.411888,6.33451949 121.821598,4.12348214 126.064132,4.12348214 Z M54.4818944,4.12348214 C56.4402484,4.12348214 58.3601272,4.47968629 59.85434,5.77449799 L59.9799942,5.88450229 C60.0423342,5.94117114 60.1173369,6.01641203 60.181625,6.08165263 C60.2397442,6.1397501 60.2915319,6.19372048 60.3369883,6.24356376 C60.1611699,6.42738035 59.9887609,6.52881264 59.8270664,6.57643352 C59.6478387,6.63024512 59.4807867,6.61453021 59.3390605,6.57262383 C59.1474948,6.51484383 58.9888849,6.41849094 58.8632309,6.28356515 C57.8175741,5.2944795 56.5152508,4.93732293 55.0794816,4.93732293 C52.0272547,4.93732293 50.0620826,6.63881717 50.0620826,9.51130847 C50.0620826,12.0475964 51.5991545,13.5395583 54.1848052,13.7843296 C54.4327043,13.8224263 54.6991105,13.843856 54.9908425,13.843856 C55.4413467,13.843856 55.8918503,13.7924251 56.3301788,13.7033741 C56.9112074,13.5962271 57.463015,13.4128872 57.97245,13.1414482 C58.7341674,12.7657195 59.386302,12.2566521 59.8353451,11.654248 L60.8152533,12.0485489 C59.3650124,14.0800555 56.9447347,14.7441921 54.6195103,14.7890392 L54.3615974,14.7915117 C50.2393622,14.7915117 46.829167,12.7052407 46.829167,9.45082978 C46.829167,6.33451949 50.2393622,4.12348214 54.4818944,4.12348214 Z M67.6827136,4.02218883 L74.4402803,14.6173582 L71.2020058,14.6173582 L69.2343968,11.3915204 L65.1608626,11.3915204 L65.5646117,10.6919693 C65.6474072,10.5714884 65.7871855,10.4933904 65.9469319,10.4933904 L68.6816158,10.4914854 L66.9472952,7.63756611 L62.7417755,14.6173582 L61.189605,14.6173582 L67.6827136,4.02218883 Z M116.718499,4.30074545 L116.718499,5.20458969 L110.581412,5.20458969 L110.581412,8.66519896 L116.310366,8.66519896 L116.310366,9.56047116 L110.581412,9.56047116 L110.581412,13.7153929 L116.718499,13.7153929 L116.718499,14.6168564 L107.560842,14.6168564 L107.560842,4.30217408 L116.718499,4.30074545 Z M104.326194,4.30074545 L105.599781,4.30217408 L105.599781,5.20458969 L101.542322,5.20458969 L101.542322,14.6168564 L98.5456185,14.6168564 L98.5456185,5.20458969 L94.487673,5.20839938 L94.4891341,4.30217408 L104.326194,4.30074545 Z M83.1906954,4.30074545 C85.5081805,4.30074545 87.1898386,5.58650899 87.2959211,7.19040103 L87.3012426,7.35181482 C87.3012426,9.03092682 85.5854301,10.477173 83.1906954,10.477173 L79.7040357,10.477173 L79.7040357,10.0242984 C79.7040357,9.77333641 79.9139463,9.56856661 80.1691509,9.56856661 L81.7554133,9.56856661 C83.1303037,9.56856661 84.2553469,8.58376675 84.2553469,7.38610179 C84.2553469,6.18700824 83.1303037,5.20316103 81.7554133,5.20316103 L79.2554797,5.20316103 L79.2554797,14.6154272 L76.2358833,14.6154272 L76.2358833,4.30074545 L83.1906954,4.30074545 Z M92.533344,4.29652489 L92.533344,14.6007305 L89.4947565,14.6007305 L89.4947565,4.29652489 L92.533344,4.29652489 Z" fill="#000000"></path>
                <path d="M13.493114,0.00422055491 L13.493114,5.51776601 C13.493114,7.48593699 15.1407426,9.08504626 17.1541318,9.08504626 L24.1824871,9.08504626 C26.6994673,9.08504626 28.7581506,11.2289376 28.7581506,13.6899847 L28.7581506,18.9006609 C33.6343122,18.1125353 37.3678967,14.0995249 37.3678967,9.46077486 C37.3678967,4.2596226 32.6724247,0.00422055491 26.9351906,0.00422055491 L13.493114,0.00422055491 Z" fill="#E63934"></path>
                <path d="M14.3669505,9.7618043 C11.8499702,9.7618043 9.79128686,7.77982284 9.79128686,5.31829962 L9.79128686,-1.42108547e-14 C4.34968071,0.302392564 -2.78888024e-13,4.43207537 -2.78888024e-13,9.43798229 C-2.78888024e-13,14.6391345 4.69498589,18.8954882 10.4331942,18.8954882 L25.0344069,18.8954882 L25.0344069,13.3419415 C25.0344069,11.3728181 23.3872646,9.7618043 21.3733883,9.7618043 L14.3669505,9.7618043 Z" fill="#00486D"></path>
            </g>
        </g>
    </g>
</svg>